<svg height='300px' width='300px'  fill="#ffffff" xmlns="http://www.w3.org/2000/svg" xmlns:xlink="http://www.w3.org/1999/xlink" version="1.1" x="0px" y="0px" viewBox="0 0 98 98" style="enable-background:new 0 0 98 98;" xml:space="preserve"><title>01</title><path d="M83.3,58.6c-3-0.4-5.6-2-7.3-4.5c-2,3-5.4,4.7-9,4.7c-3.6,0-6.9-1.8-9-4.7c-3.5,5-10.4,6.2-15.3,2.7  c-1-0.7-1.9-1.6-2.7-2.7c-3.5,5-10.4,6.2-15.3,2.7c-1-0.7-1.9-1.6-2.7-2.7c-1.7,2.4-4.4,4-7.3,4.5c-0.5,0.1-0.8,0.5-0.7,1  c0,0.1,0,0.1,0,0.2l1.8,5.9c1.7,4.5,6,7.4,10.8,7.3h44.8c4.8,0.1,9.2-2.9,10.8-7.4l1.8-5.7c0.2-0.4,0-1-0.4-1.2  C83.5,58.6,83.4,58.6,83.3,58.6z"></path><path d="M90.1,44l-13.2-9.9c-16.6-12.3-39.2-12.3-55.8,0L7.9,44C6.7,44.9,6,46.3,6,47.8c0,3.9,3.1,7,7,7  s7-3.1,7-7v-0.2c0-1.1,0.9-2,2-2s2,0.9,2,2v0.2c0,3.9,3.1,7,7,7s7-3.1,7-7v-0.2c0-1.1,0.9-2,2-2s2,0.9,2,2v0.2c0,3.9,3.1,7,7,7  s7-3.1,7-7v-0.2c0-1.1,0.9-2,2-2s2,0.9,2,2v0.2c0,3.9,3.1,7,7,7s7-3.1,7-7v-0.2c0-1.1,0.9-2,2-2s2,0.9,2,2v0.2c0,3.9,3.1,7,7,7  s7-3.1,7-7C92,46.3,91.3,44.9,90.1,44z M39.5,31l-0.9,2.2c-0.3,0.8-1,1.4-1.9,1.4c-1.2,0-2.1-0.9-2.1-2.1c0-0.9,0.5-1.7,1.3-2  l2.2-0.9c0.6-0.2,1.2,0.1,1.4,0.7C39.6,30.5,39.6,30.8,39.5,31z M50,33.7c-0.8,0.8-2.2,0.8-3,0c-0.6-0.6-0.8-1.5-0.4-2.3l0.9-2.2  c0.3-0.5,1-0.7,1.5-0.4c0.2,0.1,0.3,0.2,0.4,0.4l1,2.2C50.7,32.2,50.6,33.1,50,33.7z M61.3,34.6c-0.9,0-1.6-0.6-1.9-1.4L58.5,31  c-0.2-0.6,0.1-1.2,0.7-1.4c0.2-0.1,0.5-0.1,0.7,0l2.2,0.9c0.8,0.3,1.3,1.1,1.3,2C63.4,33.7,62.5,34.6,61.3,34.6  C61.3,34.6,61.3,34.6,61.3,34.6z"></path></svg>