<svg height='300px' width='300px'  fill="#ffffff" xmlns="http://www.w3.org/2000/svg" xmlns:xlink="http://www.w3.org/1999/xlink" version="1.1" x="0px" y="0px" viewBox="0 0 52 52" style="enable-background:new 0 0 52 52;" xml:space="preserve"><g><path d="M51.9,35.5C49.6,17.2,34.7,2.4,16.5,0.1c-2.4-0.5-4.1,1.1-4.3,2.9c-0.2,1.9,1.2,3.6,3,3.8c15.6,1.8,28.2,14.4,30.1,30.1   c0.1,1.7,1.8,3.2,3.8,3C50.7,39.6,52.4,38.1,51.9,35.5z"></path><path d="M42.9,37c-1.7-14.5-13.5-26.3-28-28c-0.9-0.1-1.7-0.4-2.5-0.9c-0.3,1.2,0,0-2,7.1c2.2,0.4,3.9,2.4,3.9,4.7   c0,2.7-2.2,4.8-4.8,4.8c-0.6,0-1.2-0.1-1.7-0.3L0,52l27.7-7.9c-0.4-0.8-0.6-1.7-0.6-2.6c0-3.6,2.9-6.5,6.5-6.5c3.3,0,6,2.5,6.5,5.7   c3.3-0.9,2.6-0.7,3.7-1.1C43.3,38.7,43,37.8,42.9,37z M10.1,44.1c-1.9,0-3.5-1.6-3.5-3.5c0-1.9,1.6-3.5,3.5-3.5s3.5,1.6,3.5,3.5   C13.7,42.6,12.1,44.1,10.1,44.1z M20.7,35.7l-2.2,2.4c-0.4,0.5-1.1,0.5-1.6,0.1c-0.5-0.4-0.5-1.1-0.1-1.6l2.2-2.4   c0.4-0.5,1.1-0.5,1.6-0.1C21.1,34.5,21.2,35.2,20.7,35.7z M21.7,30.3c-2.2,0-4-1.8-4-4s1.8-4,4-4c2.2,0,4,1.8,4,4   S23.9,30.3,21.7,30.3z M25.3,18.3c-0.6,0-1.1-0.5-1.1-1.1c0-1.4-1.1-2.5-2.5-2.5c-0.6,0-1.1-0.5-1.1-1.1s0.5-1.1,1.1-1.1   c2.6,0,4.8,2.1,4.8,4.8C26.5,17.8,26,18.3,25.3,18.3z M33.6,27.2c-1.4,0-2.5-1.1-2.5-2.5c0-1.4,1.1-2.5,2.5-2.5   c1.4,0,2.5,1.1,2.5,2.5C36.1,26.1,35,27.2,33.6,27.2z"></path></g></svg>