<svg height='300px' width='300px'  fill="#ffffff" xmlns="http://www.w3.org/2000/svg" data-name="Layer 1" viewBox="0 0 100 100" x="0px" y="0px"><title>food_13</title><path d="M59.16,57a2,2,0,0,1,.11,2.83l-2.46,2.67a2,2,0,0,1-1.47.65A2,2,0,0,1,54,62.59a2,2,0,0,1-.11-2.83l2.46-2.67A2,2,0,0,1,59.16,57ZM44.32,60.18l-2.46,2.67a2,2,0,0,0,1.47,3.35,2,2,0,0,0,1.47-.64l2.47-2.67a2,2,0,0,0-3-2.71ZM81.07,45c3.45,13-3.27,16.49-11,20.54-3.42,1.78-10.55,5.51-24.7,8.12a28.56,28.56,0,0,1-5.26.53c-3.56,0-6.33-.88-8.26-2.62a8.34,8.34,0,0,1-2.56-4.68,9.39,9.39,0,0,1-1.31-.5,17.87,17.87,0,0,1-9.58-12.06,13.7,13.7,0,0,1,2.76-12,37.31,37.31,0,0,1,2.8-3,39.83,39.83,0,0,1,1.47,9.28,2,2,0,0,0,2,1.93h.07A2,2,0,0,0,29.4,48.5a44.36,44.36,0,0,0-2.14-12,50,50,0,0,1,8.18-5.12,40.65,40.65,0,0,1,2.4,6.3l.18.64a19.49,19.49,0,0,0,1.17,3.39A2,2,0,0,0,41,42.88a2,2,0,0,0,.86-.2A2,2,0,0,0,42.79,40a17.33,17.33,0,0,1-.92-2.72l-.18-.68a44.31,44.31,0,0,0-2.61-6.85,54.77,54.77,0,0,1,9.51-2.92A68.48,68.48,0,0,1,50.48,38.4a2,2,0,0,0,2,1.85h.15a2,2,0,0,0,1.84-2.14,72.85,72.85,0,0,0-1.91-11.93,43.11,43.11,0,0,1,14.75.54c-.43,3.51-.93,7-1.51,10.46a2,2,0,0,0,1.65,2.31l.33,0a2,2,0,0,0,2-1.67c.55-3.28,1-6.6,1.44-9.92a24.28,24.28,0,0,1,2.35,1c5.11,2.61,8.58,7.72,8.45,12.44A8.68,8.68,0,0,1,81.07,45Zm-3.29,3.63a13.48,13.48,0,0,1-2.22,1.25c-4.68,2.06-9.64,2.38-14.43,2.7a53.48,53.48,0,0,0-9.83,1.24l-.26.07c-3.48.92-8.37,2.82-11.9,6.61a18.61,18.61,0,0,0-1.69,2.23c-1,1.4-2.22,3.23-4.11,4.05a4.18,4.18,0,0,0,1.2,1.86c1.82,1.59,5.3,2,10.07,1.09,13.57-2.51,20.33-6,23.58-7.74C75.16,58.38,79.07,56.33,77.78,48.66Z"></path></svg>