<?xml version="1.0" encoding="utf-8"?><svg xmlns="http://www.w3.org/2000/svg" xmlns:xlink="http://www.w3.org/1999/xlink"><symbol fill="#fff" viewBox="0 0 100 100" id="burger" xmlns="http://www.w3.org/2000/svg"><path d="M62 67h26v5c0 2.8-2.2 5-5 5H50c.5 0 1-.2 1.3-.5L62 67zm-24 0H12v5c0 2.8 2.2 5 5 5h33c-.5 0-1-.2-1.3-.5L38 67zm46-9c0-2.8-2.2-5-5-5h-1.2L66.5 63H79c2.8 0 5-2.2 5-5zm-63-5c-2.8 0-5 2.2-5 5s2.2 5 5 5h12.5L22.2 53H21zm67-6v2H12v-2c0-13.2 10.8-24 24-24h28c13.2 0 24 10.8 24 24zM32 34c0-.5-.2-1-.6-1.4-.1-.1-.2-.2-.3-.2s-.2-.1-.3-.2c-.1 0-.2-.1-.4-.1h-.8c-.1 0-.2.1-.4.1-.1.1-.2.1-.3.2s-.2.2-.3.2c-.1.1-.2.2-.2.3-.1.1-.1.2-.2.3-.1.1-.1.2-.1.4v.8c0 .1.1.3.1.4 0 .1.1.2.2.3.1.1.1.2.2.3.4.4.9.6 1.4.6s1-.2 1.4-.6c.4-.4.6-.9.6-1.4zm10 8v-.4c0-.1-.1-.2-.1-.4 0-.1-.1-.2-.2-.3-.1-.1-.1-.2-.2-.3-.1-.1-.2-.2-.3-.2s-.2-.1-.3-.2c-.1 0-.2-.1-.4-.1-.7-.1-1.3.1-1.8.5-.1.1-.2.2-.2.3-.1.1-.1.2-.2.3-.1.1-.1.2-.1.4v.4c0 .5.2 1 .6 1.4.2.4.7.6 1.2.6h.4c.1 0 .2-.1.4-.1.1 0 .2-.1.3-.2s.2-.1.3-.2c.4-.5.6-1 .6-1.5zm10-12v-.4c0-.1-.1-.2-.1-.4 0-.1-.1-.2-.2-.3-.1-.1-.1-.2-.2-.3-.7-.8-2.1-.8-2.8 0-.1.1-.2.2-.2.3-.1.1-.1.2-.2.3-.1.1-.1.2-.1.4v.4c0 .5.2 1 .6 1.4.2.4.7.6 1.2.6s1-.2 1.4-.6c.4-.4.6-.9.6-1.4zm10 12c0-.5-.2-1-.6-1.4-.5-.5-1.1-.7-1.8-.5-.1 0-.2.1-.4.1-.1.1-.2.1-.3.2-.1.1-.2.2-.3.2-.4.4-.6.9-.6 1.4v.4c0 .1.1.2.1.4 0 .1.1.2.2.3.1.1.1.2.2.3.5.4 1 .6 1.5.6s1-.2 1.4-.6c.1-.1.2-.2.2-.3.1-.1.1-.2.2-.3.1-.1.1-.2.1-.4.1-.1.1-.3.1-.4zm10-8v-.4c0-.1-.1-.2-.1-.4 0-.1-.1-.2-.2-.3-.1-.1-.1-.2-.2-.3-.7-.8-2.1-.8-2.8 0-.1.1-.2.2-.2.3-.1.1-.1.2-.2.3-.1.1-.1.2-.1.4v.4c0 .5.2 1 .6 1.4.2.4.7.6 1.2.6s1-.2 1.4-.6c.4-.4.6-.9.6-1.4zM50 72.3L71.7 53H28.3L50 72.3z"/></symbol><symbol fill="#fff" viewBox="0 0 66 66" id="burrito" xmlns="http://www.w3.org/2000/svg"><path d="M34.5 50.4l1.5 9.1-2 .3-1.4-8.4-2.9 7.5-1.9-.7 2.5-6.6C28 54 25.1 56 21.9 57.3h.3c0 2.2 1.8 3.8 3.9 3.2.5-.2 1.1.1 1.2.6.5 1.2 1.5 1.9 2.7 1.9.8 0 1.6-.4 2.2-1.1.2-.2.5-.4.8-.4.3 0 .6.1.8.4.6.7 1.4 1.1 2.2 1.1 1.2 0 2.2-.8 2.7-2 .2-.5.8-.8 1.3-.6.3.1.6.2.9.2 1.6 0 2.9-1.4 2.9-3.2h.4c-3.7-1.6-7-4-9.7-7z"/><circle cx="24" cy="45.8" r="1.8"/><path d="M27.8 7.8l1.9-.7 2.9 7.5L34 6.3l2 .3-1.3 8.1c2.5-2.9 5.7-5.1 9.1-6.7-.3-1.5-1.5-2.7-2.9-2.7-.3 0-.6.1-.9.2-.5.2-1.1-.1-1.3-.6-.5-1.2-1.5-2-2.7-2-.8 0-1.6.4-2.2 1.1-.2.2-.5.4-.8.4-.3 0-.6-.1-.8-.4-.5-.6-1.3-1-2.1-1-1.2 0-2.3.8-2.7 1.9-.2.5-.7.7-1.2.6-.3-.1-.6-.2-1-.2-1.5 0-2.7 1.2-2.9 2.7 2.9 1.3 5.4 3 7.7 5.1l-2.2-5.3z"/><path d="M18.5 8.8v47.7c23.8-7.1 23.2-40.8 0-47.7zm10.7 22.6c.5.2 1.1.2 1.7 0 .5-.2 1-.6 1.2-1.2.2-.5.2-1.1 0-1.7-.2-.5-.6-1-1.2-1.2l.8-1.8c3.4 1.5 3.3 6.3-.1 7.7-.5.2-1 .3-1.5.3-.6 0-1.1-.1-1.7-.3l.8-1.8zM27.7 38h2.1v2h-2.1v-2zm-2.4-16.9c.5-1.1 0-2.4-1.1-2.9l.8-1.8c2.1.9 3.1 3.4 2.2 5.5-.7 1.6-2.2 2.5-3.8 2.5-.6 0-1.1-.1-1.6-.3l.8-1.8c.9.4 2.2-.1 2.7-1.2zM22.7 31v-2h2.1v2h-2.1zm.4 4.1v2H21v-2h2.1zm-2.9-22.4h2.1v2h-2.1v-2zM24 49.6c-2.1 0-3.8-1.7-3.8-3.8S21.9 42 24 42s3.8 1.7 3.8 3.8-1.7 3.8-3.8 3.8z"/><circle cx="42" cy="45.8" r="1.8"/><path d="M34.2 18.4C37.7 24 39.1 31 37.7 38h.6v2h-1.1c-.7 2.3-1.8 4.8-3 6.7 3.3 4.7 7.9 8.1 13.4 9.7V8.8c-5.5 1.6-10.2 5-13.4 9.6zm6.8-2l.8 1.8c-1.1.5-1.6 1.8-1.1 2.9.5 1.1 1.8 1.6 2.9 1.1l.8 1.8c-.5.2-1.1.3-1.6.3-1.6 0-3.2-.9-3.8-2.5-1-2-.1-4.5 2-5.4zm1.9 18.7H45v2h-2.1v-2zM41.3 31v-2h2.1v2h-2.1zm.7 18.6c-2.1 0-3.8-1.7-3.8-3.8S39.9 42 42 42s3.8 1.7 3.8 3.8-1.7 3.8-3.8 3.8zm3.8-34.9h-2.1v-2h2.1v2z"/></symbol><symbol fill="#fff" viewBox="0 0 98 98" id="pie" xmlns="http://www.w3.org/2000/svg"><path d="M83.3 58.6c-3-.4-5.6-2-7.3-4.5-2 3-5.4 4.7-9 4.7-3.6 0-6.9-1.8-9-4.7-3.5 5-10.4 6.2-15.3 2.7-1-.7-1.9-1.6-2.7-2.7-3.5 5-10.4 6.2-15.3 2.7-1-.7-1.9-1.6-2.7-2.7-1.7 2.4-4.4 4-7.3 4.5-.5.1-.8.5-.7 1v.2l1.8 5.9c1.7 4.5 6 7.4 10.8 7.3h44.8c4.8.1 9.2-2.9 10.8-7.4l1.8-5.7c.2-.4 0-1-.4-1.2-.1-.1-.2-.1-.3-.1z"/><path d="M90.1 44l-13.2-9.9a46.803 46.803 0 00-55.8 0L7.9 44c-1.2.9-1.9 2.3-1.9 3.8 0 3.9 3.1 7 7 7s7-3.1 7-7v-.2c0-1.1.9-2 2-2s2 .9 2 2v.2c0 3.9 3.1 7 7 7s7-3.1 7-7v-.2c0-1.1.9-2 2-2s2 .9 2 2v.2c0 3.9 3.1 7 7 7s7-3.1 7-7v-.2c0-1.1.9-2 2-2s2 .9 2 2v.2c0 3.9 3.1 7 7 7s7-3.1 7-7v-.2c0-1.1.9-2 2-2s2 .9 2 2v.2c0 3.9 3.1 7 7 7s7-3.1 7-7c0-1.5-.7-2.9-1.9-3.8zM39.5 31l-.9 2.2c-.3.8-1 1.4-1.9 1.4-1.2 0-2.1-.9-2.1-2.1 0-.9.5-1.7 1.3-2l2.2-.9c.6-.2 1.2.1 1.4.7.1.2.1.5 0 .7zM50 33.7c-.8.8-2.2.8-3 0-.6-.6-.8-1.5-.4-2.3l.9-2.2c.3-.5 1-.7 1.5-.4.2.1.3.2.4.4l1 2.2c.3.8.2 1.7-.4 2.3zm11.3.9c-.9 0-1.6-.6-1.9-1.4l-.9-2.2c-.2-.6.1-1.2.7-1.4.2-.1.5-.1.7 0l2.2.9c.8.3 1.3 1.1 1.3 2 0 1.2-.9 2.1-2.1 2.1z"/></symbol><symbol fill="#fff" viewBox="0 0 52 52" id="pizza" xmlns="http://www.w3.org/2000/svg"><path d="M51.9 35.5C49.6 17.2 34.7 2.4 16.5.1c-2.4-.5-4.1 1.1-4.3 2.9-.2 1.9 1.2 3.6 3 3.8 15.6 1.8 28.2 14.4 30.1 30.1.1 1.7 1.8 3.2 3.8 3 1.6-.3 3.3-1.8 2.8-4.4z"/><path d="M42.9 37c-1.7-14.5-13.5-26.3-28-28-.9-.1-1.7-.4-2.5-.9-.3 1.2 0 0-2 7.1 2.2.4 3.9 2.4 3.9 4.7 0 2.7-2.2 4.8-4.8 4.8-.6 0-1.2-.1-1.7-.3L0 52l27.7-7.9c-.4-.8-.6-1.7-.6-2.6 0-3.6 2.9-6.5 6.5-6.5 3.3 0 6 2.5 6.5 5.7 3.3-.9 2.6-.7 3.7-1.1-.5-.9-.8-1.8-.9-2.6zm-32.8 7.1c-1.9 0-3.5-1.6-3.5-3.5s1.6-3.5 3.5-3.5 3.5 1.6 3.5 3.5c.1 2-1.5 3.5-3.5 3.5zm10.6-8.4l-2.2 2.4c-.4.5-1.1.5-1.6.1s-.5-1.1-.1-1.6l2.2-2.4c.4-.5 1.1-.5 1.6-.1s.6 1.1.1 1.6zm1-5.4c-2.2 0-4-1.8-4-4s1.8-4 4-4 4 1.8 4 4-1.8 4-4 4zm3.6-12c-.6 0-1.1-.5-1.1-1.1 0-1.4-1.1-2.5-2.5-2.5-.6 0-1.1-.5-1.1-1.1s.5-1.1 1.1-1.1c2.6 0 4.8 2.1 4.8 4.8 0 .5-.5 1-1.2 1zm8.3 8.9c-1.4 0-2.5-1.1-2.5-2.5s1.1-2.5 2.5-2.5 2.5 1.1 2.5 2.5-1.1 2.5-2.5 2.5z"/></symbol><symbol fill="#fff" viewBox="0 0 100 100" id="shushi2" xmlns="http://www.w3.org/2000/svg"><path d="M59.16 57a2 2 0 01.11 2.83l-2.46 2.67a2 2 0 01-1.47.65 2 2 0 01-1.34-.56 2 2 0 01-.11-2.83l2.46-2.67a2 2 0 012.81-.09zm-14.84 3.18l-2.46 2.67a2 2 0 001.47 3.35 2 2 0 001.47-.64l2.47-2.67a2 2 0 00-3-2.71zM81.07 45c3.45 13-3.27 16.49-11 20.54-3.42 1.78-10.55 5.51-24.7 8.12a28.56 28.56 0 01-5.26.53c-3.56 0-6.33-.88-8.26-2.62a8.34 8.34 0 01-2.56-4.68 9.39 9.39 0 01-1.31-.5 17.87 17.87 0 01-9.58-12.06 13.7 13.7 0 012.76-12 37.31 37.31 0 012.8-3 39.83 39.83 0 011.47 9.28 2 2 0 002 1.93h.07a2 2 0 001.9-2.04 44.36 44.36 0 00-2.14-12 50 50 0 018.18-5.12 40.65 40.65 0 012.4 6.3l.18.64a19.49 19.49 0 001.17 3.39A2 2 0 0041 42.88a2 2 0 00.86-.2 2 2 0 00.93-2.68 17.33 17.33 0 01-.92-2.72l-.18-.68a44.31 44.31 0 00-2.61-6.85 54.77 54.77 0 019.51-2.92 68.48 68.48 0 011.89 11.57 2 2 0 002 1.85h.15a2 2 0 001.84-2.14 72.85 72.85 0 00-1.91-11.93 43.11 43.11 0 0114.75.54c-.43 3.51-.93 7-1.51 10.46a2 2 0 001.65 2.31h.33a2 2 0 002-1.67c.55-3.28 1-6.6 1.44-9.92a24.28 24.28 0 012.35 1c5.11 2.61 8.58 7.72 8.45 12.44a8.68 8.68 0 01-.95 3.66zm-3.29 3.63a13.48 13.48 0 01-2.22 1.25c-4.68 2.06-9.64 2.38-14.43 2.7a53.48 53.48 0 00-9.83 1.24l-.26.07c-3.48.92-8.37 2.82-11.9 6.61a18.61 18.61 0 00-1.69 2.23c-1 1.4-2.22 3.23-4.11 4.05a4.18 4.18 0 001.2 1.86c1.82 1.59 5.3 2 10.07 1.09 13.57-2.51 20.33-6 23.58-7.74 6.97-3.61 10.88-5.66 9.59-13.33z"/></symbol><symbol fill="#fff" viewBox="0 0 16 16" id="sushi" xmlns="http://www.w3.org/2000/svg"><path d="M8 7C5.791 7 4 8.119 4 9.5S5.791 12 8 12s4-1.119 4-2.5S10.209 7 8 7zm0 3c-.552 0-1-.224-1-.5S7.448 9 8 9s1 .224 1 .5-.448.5-1 .5z"/><path d="M4 11.604V13.5C4 14.902 5.757 16 8 16s4-1.098 4-2.5v-1.896C11.096 12.452 9.661 13 8 13s-3.096-.548-4-1.396zM4 6c2.209 0 4-1.119 4-2.5S6.209 1 4 1 0 2.119 0 3.5 1.791 6 4 6zm0-3c.552 0 1 .224 1 .5S4.552 4 4 4s-1-.224-1-.5.448-.5 1-.5zm8 3c2.209 0 4-1.119 4-2.5S14.209 1 12 1 8 2.119 8 3.5 9.791 6 12 6zm0-3c.552 0 1 .224 1 .5s-.448.5-1 .5-1-.224-1-.5.448-.5 1-.5zm-.552 3.954C12.404 7.588 13 8.484 13 9.5c0 .147-.036.285-.06.426C14.713 9.668 16 8.698 16 7.5V5.604C15.096 6.452 13.661 7 12 7c-.191 0-.367-.031-.552-.046zm-6.896 0C4.367 6.969 4.191 7 4 7 2.339 7 .904 6.452 0 5.604V7.5c0 1.198 1.287 2.168 3.06 2.426C3.036 9.785 3 9.647 3 9.5c0-1.016.596-1.912 1.552-2.546z"/></symbol><symbol fill="#fff" viewBox="0 0 32 32" id="sushi3" xmlns="http://www.w3.org/2000/svg"><path d="M16 0C7.164 0 0 4.027 0 9v14c0 4.969 7.164 9 16 9 8.837 0 16.001-4.031 16.001-9V9c0-4.973-7.164-9-16.001-9zm0 16C8.27 16 2 12 2 9s6.27-7 14-7c7.735 0 14.001 4 14.001 7S23.735 16 16 16zm0-10c-3.863 0-7 1.344-7 3s3.137 3 7 3c3.868 0 7.001-1.344 7.001-3S19.868 6 16 6z"/></symbol><symbol fill="#fff" viewBox="0 0 100 100" id="wok" xmlns="http://www.w3.org/2000/svg"><path d="M45.794 47.533L40 40h-9.87l-6.494-8.115-1.924 1.924 3.984 39.846zM74.3 73.655l3.984-39.849-1.924-1.924L69.87 40H48.411zm-47.633 9.678h46.666L50 52.998z"/><path d="M90 26.667l-10-10H20l-10 10 4.714 4.714 9.475-9.477 9.144 11.43h33.334l9.144-11.43 9.475 9.477z"/></symbol></svg>