<svg height='300px' width='300px'  fill="#ffffff" xmlns="http://www.w3.org/2000/svg" xmlns:xlink="http://www.w3.org/1999/xlink" version="1.1" x="0px" y="0px" viewBox="0 0 16 16" style="enable-background:new 0 0 16 16;" xml:space="preserve"><g><path d="M8,7C5.791,7,4,8.119,4,9.5C4,10.881,5.791,12,8,12s4-1.119,4-2.5C12,8.119,10.209,7,8,7z M8,10c-0.552,0-1-0.224-1-0.5   C7,9.224,7.448,9,8,9s1,0.224,1,0.5C9,9.776,8.552,10,8,10z"></path><path d="M4,11.604V13.5C4,14.902,5.757,16,8,16s4-1.098,4-2.5v-1.896C11.096,12.452,9.661,13,8,13S4.904,12.452,4,11.604z"></path><path d="M4,6c2.209,0,4-1.119,4-2.5C8,2.119,6.209,1,4,1S0,2.119,0,3.5C0,4.881,1.791,6,4,6z M4,3c0.552,0,1,0.224,1,0.5   C5,3.776,4.552,4,4,4S3,3.776,3,3.5C3,3.224,3.448,3,4,3z"></path><path d="M12,6c2.209,0,4-1.119,4-2.5C16,2.119,14.209,1,12,1S8,2.119,8,3.5C8,4.881,9.791,6,12,6z M12,3c0.552,0,1,0.224,1,0.5   C13,3.776,12.552,4,12,4s-1-0.224-1-0.5C11,3.224,11.448,3,12,3z"></path><path d="M11.448,6.954C12.404,7.588,13,8.484,13,9.5c0,0.147-0.036,0.285-0.06,0.426C14.713,9.668,16,8.698,16,7.5V5.604   C15.096,6.452,13.661,7,12,7C11.809,7,11.633,6.969,11.448,6.954z"></path><path d="M4.552,6.954C4.367,6.969,4.191,7,4,7C2.339,7,0.904,6.452,0,5.604V7.5c0,1.198,1.287,2.168,3.06,2.426   C3.036,9.785,3,9.647,3,9.5C3,8.484,3.596,7.588,4.552,6.954z"></path></g></svg>