<svg height='300px' width='300px'  fill="#ffffff" xmlns="http://www.w3.org/2000/svg" xmlns:xlink="http://www.w3.org/1999/xlink" version="1.1" x="0px" y="0px" viewBox="0 0 100 100" style="enable-background:new 0 0 100 100;" xml:space="preserve"><path d="M62,67h26v5c0,2.8-2.2,5-5,5H50c0.5,0,1-0.2,1.3-0.5L62,67z M38,67H12v5c0,2.8,2.2,5,5,5h33c-0.5,0-1-0.2-1.3-0.5L38,67z   M84,58c0-2.8-2.2-5-5-5h-1.2L66.5,63H79C81.8,63,84,60.8,84,58z M21,53c-2.8,0-5,2.2-5,5s2.2,5,5,5h12.5L22.2,53H21z M88,47v2H12  v-2c0-13.2,10.8-24,24-24h28C77.2,23,88,33.8,88,47z M32,34c0-0.5-0.2-1-0.6-1.4c-0.1-0.1-0.2-0.2-0.3-0.2s-0.2-0.1-0.3-0.2  c-0.1,0-0.2-0.1-0.4-0.1c-0.3,0-0.5,0-0.8,0c-0.1,0-0.2,0.1-0.4,0.1c-0.1,0.1-0.2,0.1-0.3,0.2s-0.2,0.2-0.3,0.2  c-0.1,0.1-0.2,0.2-0.2,0.3c-0.1,0.1-0.1,0.2-0.2,0.3c-0.1,0.1-0.1,0.2-0.1,0.4c0,0.1,0,0.3,0,0.4s0,0.3,0,0.4c0,0.1,0.1,0.3,0.1,0.4  c0,0.1,0.1,0.2,0.2,0.3c0.1,0.1,0.1,0.2,0.2,0.3C29,35.8,29.5,36,30,36s1-0.2,1.4-0.6C31.8,35,32,34.5,32,34z M42,42  c0-0.1,0-0.3,0-0.4c0-0.1-0.1-0.2-0.1-0.4c0-0.1-0.1-0.2-0.2-0.3c-0.1-0.1-0.1-0.2-0.2-0.3c-0.1-0.1-0.2-0.2-0.3-0.2  s-0.2-0.1-0.3-0.2c-0.1,0-0.2-0.1-0.4-0.1c-0.7-0.1-1.3,0.1-1.8,0.5c-0.1,0.1-0.2,0.2-0.2,0.3c-0.1,0.1-0.1,0.2-0.2,0.3  c-0.1,0.1-0.1,0.2-0.1,0.4c0,0.1,0,0.3,0,0.4c0,0.5,0.2,1,0.6,1.4C39,43.8,39.5,44,40,44c0.1,0,0.3,0,0.4,0c0.1,0,0.2-0.1,0.4-0.1  c0.1,0,0.2-0.1,0.3-0.2s0.2-0.1,0.3-0.2C41.8,43,42,42.5,42,42z M52,30c0-0.1,0-0.3,0-0.4c0-0.1-0.1-0.2-0.1-0.4  c0-0.1-0.1-0.2-0.2-0.3c-0.1-0.1-0.1-0.2-0.2-0.3c-0.7-0.8-2.1-0.8-2.8,0c-0.1,0.1-0.2,0.2-0.2,0.3c-0.1,0.1-0.1,0.2-0.2,0.3  c-0.1,0.1-0.1,0.2-0.1,0.4c0,0.1,0,0.3,0,0.4c0,0.5,0.2,1,0.6,1.4C49,31.8,49.5,32,50,32s1-0.2,1.4-0.6C51.8,31,52,30.5,52,30z   M62,42c0-0.5-0.2-1-0.6-1.4c-0.5-0.5-1.1-0.7-1.8-0.5c-0.1,0-0.2,0.1-0.4,0.1c-0.1,0.1-0.2,0.1-0.3,0.2c-0.1,0.1-0.2,0.2-0.3,0.2  C58.2,41,58,41.5,58,42c0,0.1,0,0.3,0,0.4c0,0.1,0.1,0.2,0.1,0.4c0,0.1,0.1,0.2,0.2,0.3c0.1,0.1,0.1,0.2,0.2,0.3  C59,43.8,59.5,44,60,44s1-0.2,1.4-0.6c0.1-0.1,0.2-0.2,0.2-0.3c0.1-0.1,0.1-0.2,0.2-0.3c0.1-0.1,0.1-0.2,0.1-0.4  C62,42.3,62,42.1,62,42z M72,34c0-0.1,0-0.3,0-0.4c0-0.1-0.1-0.2-0.1-0.4c0-0.1-0.1-0.2-0.2-0.3c-0.1-0.1-0.1-0.2-0.2-0.3  c-0.7-0.8-2.1-0.8-2.8,0c-0.1,0.1-0.2,0.2-0.2,0.3c-0.1,0.1-0.1,0.2-0.2,0.3c-0.1,0.1-0.1,0.2-0.1,0.4c0,0.1,0,0.3,0,0.4  c0,0.5,0.2,1,0.6,1.4C69,35.8,69.5,36,70,36s1-0.2,1.4-0.6C71.8,35,72,34.5,72,34z M50,72.3L71.7,53H28.3L50,72.3z"></path></svg>