<svg height='300px' width='300px'  fill="#ffffff" xmlns="http://www.w3.org/2000/svg" xmlns:xlink="http://www.w3.org/1999/xlink" version="1.1" x="0px" y="0px" viewBox="0 0 66 66" enable-background="new 0 0 66 66" xml:space="preserve"><g><g><path d="M34.5,50.4l1.5,9.1l-2,0.3l-1.4-8.4l-2.9,7.5l-1.9-0.7l2.5-6.6C28,54,25.1,56,21.9,57.3l0.3,0c0,2.2,1.8,3.8,3.9,3.2    c0.5-0.2,1.1,0.1,1.2,0.6c0.5,1.2,1.5,1.9,2.7,1.9c0.8,0,1.6-0.4,2.2-1.1c0.2-0.2,0.5-0.4,0.8-0.4c0,0,0,0,0,0    c0.3,0,0.6,0.1,0.8,0.4c0.6,0.7,1.4,1.1,2.2,1.1c1.2,0,2.2-0.8,2.7-2c0.2-0.5,0.8-0.8,1.3-0.6c0.3,0.1,0.6,0.2,0.9,0.2    c1.6,0,2.9-1.4,2.9-3.2l0.4,0C40.5,55.8,37.2,53.4,34.5,50.4z"></path><circle cx="24" cy="45.8" r="1.8"></circle><path d="M27.8,7.8l1.9-0.7l2.9,7.5L34,6.3l2,0.3l-1.3,8.1c2.5-2.9,5.7-5.1,9.1-6.7c-0.3-1.5-1.5-2.7-2.9-2.7    c-0.3,0-0.6,0.1-0.9,0.2c-0.5,0.2-1.1-0.1-1.3-0.6c-0.5-1.2-1.5-2-2.7-2c-0.8,0-1.6,0.4-2.2,1.1c-0.2,0.2-0.5,0.4-0.8,0.4    c0,0,0,0,0,0c-0.3,0-0.6-0.1-0.8-0.4C31.7,3.4,30.9,3,30.1,3c-1.2,0-2.3,0.8-2.7,1.9c-0.2,0.5-0.7,0.7-1.2,0.6    c-0.3-0.1-0.6-0.2-1-0.2c-1.5,0-2.7,1.2-2.9,2.7c2.9,1.3,5.4,3,7.7,5.1L27.8,7.8z"></path><path d="M18.5,8.8v47.7C42.3,49.4,41.7,15.7,18.5,8.8z M29.2,31.4c0.5,0.2,1.1,0.2,1.7,0c0.5-0.2,1-0.6,1.2-1.2    c0.2-0.5,0.2-1.1,0-1.7c-0.2-0.5-0.6-1-1.2-1.2l0.8-1.8c3.4,1.5,3.3,6.3-0.1,7.7c-0.5,0.2-1,0.3-1.5,0.3c-0.6,0-1.1-0.1-1.7-0.3    L29.2,31.4z M27.7,38h2.1v2h-2.1V38z M25.3,21.1c0.5-1.1,0-2.4-1.1-2.9l0.8-1.8c2.1,0.9,3.1,3.4,2.2,5.5c-0.7,1.6-2.2,2.5-3.8,2.5    c-0.6,0-1.1-0.1-1.6-0.3l0.8-1.8C23.5,22.7,24.8,22.2,25.3,21.1z M22.7,31v-2h2.1v2H22.7z M23.1,35.1v2H21v-2H23.1z M20.2,12.7    h2.1v2h-2.1V12.7z M24,49.6c-2.1,0-3.8-1.7-3.8-3.8s1.7-3.8,3.8-3.8s3.8,1.7,3.8,3.8S26.1,49.6,24,49.6z"></path><circle cx="42" cy="45.8" r="1.8"></circle><path d="M34.2,18.4C37.7,24,39.1,31,37.7,38h0.6v2h-1.1c-0.7,2.3-1.8,4.8-3,6.7c3.3,4.7,7.9,8.1,13.4,9.7V8.8    C42.1,10.4,37.4,13.8,34.2,18.4z M41,16.4l0.8,1.8c-1.1,0.5-1.6,1.8-1.1,2.9c0.5,1.1,1.8,1.6,2.9,1.1l0.8,1.8    c-0.5,0.2-1.1,0.3-1.6,0.3c-1.6,0-3.2-0.9-3.8-2.5C38,19.8,38.9,17.3,41,16.4z M42.9,35.1H45v2h-2.1V35.1z M41.3,31v-2h2.1v2H41.3    z M42,49.6c-2.1,0-3.8-1.7-3.8-3.8s1.7-3.8,3.8-3.8s3.8,1.7,3.8,3.8S44.1,49.6,42,49.6z M45.8,14.7h-2.1v-2h2.1V14.7z"></path></g></g></svg>