<svg height='300px' width='300px'  fill="#ffffff" xmlns="http://www.w3.org/2000/svg" xmlns:xlink="http://www.w3.org/1999/xlink" version="1.0" x="0px" y="0px" viewBox="0 0 32 32" enable-background="new 0 0 32 32" xml:space="preserve"><g><g><path d="M16,0C7.164,0,0,4.027,0,9v14c0,4.969,7.164,9,16,9c8.837,0,16.001-4.031,16.001-9V9C32.001,4.027,24.837,0,16,0z M16,16    C8.27,16,2,12,2,9s6.27-7,14-7c7.735,0,14.001,4,14.001,7S23.735,16,16,16z M16,6c-3.863,0-7,1.344-7,3s3.137,3,7,3    c3.868,0,7.001-1.344,7.001-3S19.868,6,16,6z"></path></g></g></svg>